<svg width="20" height="37" viewBox="0 0 20 37" fill="none" xmlns="http://www.w3.org/2000/svg">
<path d="M18.9985 0.929365L14.3302 0.921875C9.08543 0.921875 5.69605 4.39926 5.69605 9.78143V13.8663H1.00224C0.59664 13.8663 0.268188 14.1951 0.268188 14.6007V20.5192C0.268188 20.9248 0.597014 21.2532 1.00224 21.2532H5.69605V36.1875C5.69605 36.5931 6.02451 36.9215 6.43011 36.9215H12.5542C12.9598 36.9215 13.2883 36.5927 13.2883 36.1875V21.2532H18.7764C19.182 21.2532 19.5105 20.9248 19.5105 20.5192L19.5127 14.6007C19.5127 14.406 19.4352 14.2195 19.2977 14.0816C19.1603 13.9438 18.973 13.8663 18.7783 13.8663H13.2883V10.4035C13.2883 8.73915 13.6849 7.89425 15.8529 7.89425L18.9978 7.89312C19.403 7.89312 19.7314 7.5643 19.7314 7.15907V1.66342C19.7314 1.25857 19.4034 0.930114 18.9985 0.929365Z" fill="white"/>
</svg>
