<svg width="36" height="37" viewBox="0 0 36 37" fill="none" xmlns="http://www.w3.org/2000/svg">
<g clip-path="url(#clip0_1_300)">
<rect width="36" height="36" transform="translate(0 0.921875)" fill="#D6BBD3"/>
<path d="M26.9985 0.929365L22.3302 0.921875C17.0854 0.921875 13.6961 4.39926 13.6961 9.78143V13.8663H9.00224C8.59664 13.8663 8.26819 14.1951 8.26819 14.6007V20.5192C8.26819 20.9248 8.59701 21.2532 9.00224 21.2532H13.6961V36.1875C13.6961 36.5931 14.0245 36.9215 14.4301 36.9215H20.5542C20.9598 36.9215 21.2883 36.5927 21.2883 36.1875V21.2532H26.7764C27.182 21.2532 27.5105 20.9248 27.5105 20.5192L27.5127 14.6007C27.5127 14.406 27.4352 14.2195 27.2977 14.0816C27.1603 13.9438 26.973 13.8663 26.7783 13.8663H21.2883V10.4035C21.2883 8.73915 21.6849 7.89425 23.8529 7.89425L26.9978 7.89312C27.403 7.89312 27.7314 7.5643 27.7314 7.15907V1.66342C27.7314 1.25857 27.4034 0.930114 26.9985 0.929365Z" fill="white"/>
</g>
<defs>
<clipPath id="clip0_1_300">
<rect width="36" height="36" fill="white" transform="translate(0 0.921875)"/>
</clipPath>
</defs>
</svg>
